<?xml version="1.0" standalone="no"?>
<!DOCTYPE svg PUBLIC "-//W3C//DTD SVG 20010904//EN"
 "http://www.w3.org/TR/2001/REC-SVG-20010904/DTD/svg10.dtd">
<svg version="1.0" xmlns="http://www.w3.org/2000/svg"
 width="700.000000pt" height="700.000000pt" viewBox="0 0 700.000000 700.000000"
 preserveAspectRatio="xMidYMid meet">
<metadata>
Created by potrace 1.14, written by Peter Selinger 2001-2017
</metadata>
<g transform="translate(0.000000,700.000000) scale(0.100000,-0.100000)"
fill="#000000" stroke="none">
<path d="M324 6984 c-116 -31 -229 -124 -278 -229 -48 -100 -46 59 -46 -3255
0 -3348 -3 -3152 50 -3264 28 -58 109 -143 171 -177 24 -14 72 -33 105 -42 56
-16 278 -17 3167 -17 2247 0 3121 3 3159 11 133 28 251 123 307 244 42 94 41
-33 41 3237 0 2269 -3 3121 -11 3160 -35 162 -158 290 -322 334 -78 21 -6266
19 -6343 -2z m3808 -1969 c166 -30 299 -84 443 -180 416 -279 594 -818 427
-1295 -96 -275 -305 -509 -567 -635 -81 -39 -246 -95 -281 -95 -7 0 -17 -8
-21 -17 -5 -10 -8 -199 -8 -421 l1 -402 -858 0 c-472 0 -858 3 -859 8 0 4 -2
692 -2 1530 l-2 1522 825 -1 c653 0 841 -3 902 -14z"/>
<path d="M2849 4585 c-1 -5 -3 -497 -3 -1092 -1 -743 1 -1083 9 -1086 9 -2
772 -1 818 2 16 1 17 28 17 410 l0 410 178 0 c236 0 320 21 467 116 147 96
265 278 292 450 8 50 8 189 0 233 -46 262 -243 474 -505 544 -73 19 -109 20
-675 21 -391 1 -598 -1 -598 -8z"/>
</g>
</svg>
